<?xml version="1.0" encoding="UTF-8"?>
<!DOCTYPE svg PUBLIC "-//W3C//DTD SVG 1.1//EN" "http://www.w3.org/Graphics/SVG/1.1/DTD/svg11.dtd">
<!-- Creator: CorelDRAW -->
<svg xmlns="http://www.w3.org/2000/svg" xml:space="preserve" width="1021.2mm" height="222.066mm" version="1.1" style="shape-rendering:geometricPrecision; text-rendering:geometricPrecision; image-rendering:optimizeQuality; fill-rule:evenodd; clip-rule:evenodd"
viewBox="0 0 17416.75 3787.37"
 xmlns:xlink="http://www.w3.org/1999/xlink"
 xmlns:xodm="http://www.corel.com/coreldraw/odm/2003">
 <defs>
  <style type="text/css">
   <![CDATA[
    .fil2 {fill:#DF7C09}
    .fil0 {fill:#EAA416}
    .fil1 {fill:white;fill-rule:nonzero}
    .fil7 {fill:url(#id0)}
    .fil4 {fill:url(#id1);fill-rule:nonzero}
    .fil5 {fill:url(#id2);fill-rule:nonzero}
    .fil3 {fill:url(#id3);fill-rule:nonzero}
    .fil8 {fill:url(#id4);fill-rule:nonzero}
    .fil6 {fill:url(#id5);fill-rule:nonzero}
   ]]>
  </style>
  <linearGradient id="id0" gradientUnits="userSpaceOnUse" x1="12438.17" y1="3785.25" x2="12438.17" y2="1618.53">
   <stop offset="0" style="stop-opacity:1; stop-color:#0186AF"/>
   <stop offset="1" style="stop-opacity:1; stop-color:#00B4D8"/>
  </linearGradient>
  <linearGradient id="id1" gradientUnits="userSpaceOnUse" xlink:href="#id0" x1="6813.76" y1="3785.25" x2="6813.76" y2="1582.01">
  </linearGradient>
  <linearGradient id="id2" gradientUnits="userSpaceOnUse" xlink:href="#id0" x1="8750.95" y1="3748.73" x2="8750.95" y2="1618.53">
  </linearGradient>
  <linearGradient id="id3" gradientUnits="userSpaceOnUse" xlink:href="#id0" x1="5098.72" y1="3785.25" x2="5098.72" y2="1582.01">
  </linearGradient>
  <linearGradient id="id4" gradientUnits="userSpaceOnUse" x1="15318.35" y1="3547.66" x2="15108.9" y2="1819.6">
   <stop offset="0" style="stop-opacity:1; stop-color:#DF7C09"/>
   <stop offset="1" style="stop-opacity:1; stop-color:#EAA416"/>
  </linearGradient>
  <linearGradient id="id5" gradientUnits="userSpaceOnUse" xlink:href="#id0" x1="10723.13" y1="3748.73" x2="10723.13" y2="1618.53">
  </linearGradient>
 </defs>
 <g id="Capa_x0020_1">
  <metadata id="CorelCorpID_0Corel-Layer"/>
  <g id="_1907437922848">
   <path class="fil0" d="M2020.9 0c754.73,0 1366.54,611.81 1366.54,1366.52 0,754.71 -611.81,1366.52 -1366.54,1366.52 -754.69,0 -1366.52,-611.81 -1366.52,-1366.52 0,-754.71 611.82,-1366.52 1366.52,-1366.52zm0 97.07c701.12,0 1269.46,568.34 1269.46,1269.44 0,701.12 -568.34,1269.48 -1269.46,1269.48 -701.1,0 -1269.46,-568.36 -1269.46,-1269.48 0,-701.1 568.36,-1269.44 1269.46,-1269.44z"/>
   <path class="fil0" d="M2020.9 169.47c661.12,0 1197.06,535.94 1197.06,1197.04 0,661.14 -535.94,1197.08 -1197.06,1197.08 -661.11,0 -1197.06,-535.94 -1197.06,-1197.08 0,-661.11 535.96,-1197.04 1197.06,-1197.04z"/>
   <path class="fil1" d="M2471.47 891.06c-94.13,-84.01 -210.34,-133.41 -348.58,-148.2l0 -176.35 -203.98 0 0 180.18c-78.95,12.48 -151.54,38.63 -217.73,78.35 -96.53,57.92 -144.8,144.78 -144.8,260.63 1.5,199.24 156.75,313.54 465.67,342.87 89.59,9.28 156.39,25.5 200.39,48.65 44.02,23.17 65.27,59.47 63.71,108.91 -1.54,49.42 -26.25,86.49 -74.13,111.22 -47.9,24.69 -104.26,37.04 -169.13,37.04 -168.35,-3.1 -301.96,-59.47 -400.8,-169.1l-125.1 169.1c101.76,114.36 235.75,182.16 401.91,203.5l0 228.73 203.98 0 0 -225.39c107.95,-10.64 197.11,-42.51 267.52,-95.64 88.03,-66.41 132.81,-153.67 134.37,-261.78 0,-69.51 -14.28,-128.2 -42.85,-176.09 -28.59,-47.88 -69.51,-83.81 -122.81,-107.73 -53.26,-23.92 -103.49,-40.92 -150.56,-50.96 -47.11,-10.02 -103.11,-18.14 -167.99,-24.32 -163.73,-15.46 -246.35,-64.12 -247.88,-145.96 0,-44.78 21.99,-79.15 66.02,-103.09 44.03,-23.94 103.09,-35.14 177.22,-33.58 123.58,0 223.97,35.5 301.21,106.55l134.32 -157.52z"/>
   <path class="fil2" d="M961.78 1407.25c0,-584.94 474.17,-1059.12 1059.12,-1059.12 584.94,0 1059.12,474.17 1059.12,1059.12 0,584.94 -474.17,1059.12 -1059.12,1059.12 -584.95,0 -1059.12,-474.17 -1059.12,-1059.12zm2256.18 -40.73c0,-661.11 -535.94,-1197.04 -1197.06,-1197.04 -661.12,0 -1197.06,535.94 -1197.06,1197.04 0,661.14 535.94,1197.08 1197.06,1197.08 661.12,0 1197.06,-535.94 1197.06,-1197.08z"/>
   <path class="fil2" d="M3672.24 1254.38l369.58 1749.6 -887.28 744.74 -5.81 38.65 -1072.18 0 280.66 -900.74 1002.84 -589.32 33.36 388.84 -438.2 413.13 -155.76 410.19 229.41 -318.41 495.27 -430.59 -84.81 -979.01c0,0 -37.4,-422.67 232.93,-527.08z"/>
   <path class="fil2" d="M369.58 1254.38l-369.58 1749.6 887.29 744.74 5.81 38.65 1072.18 0 -280.66 -900.74 -1002.84 -589.32 -33.36 388.84 438.18 413.11 155.78 410.2 -229.43 -318.41 -495.27 -430.59 84.83 -979.01c0,0 37.38,-422.67 -232.93,-527.08z"/>
  </g>
  <path class="fil3" d="M5498.89 2994.03l456.47 0 0 109.55c0,66.95 -8.62,131.36 -25.87,193.24 -17.24,61.88 -46.66,123.25 -88.25,184.11 -41.59,60.86 -93.83,113.1 -156.72,156.72 -62.89,43.62 -144.04,79.12 -243.45,106.51 -99.41,27.39 -212.01,41.08 -337.79,41.08 -158.24,0 -295.69,-22.82 -412.34,-68.47 -116.66,-45.65 -205.92,-107.52 -267.8,-185.63 -61.88,-78.11 -107.52,-160.78 -136.94,-248.02 -29.42,-87.24 -44.12,-180.56 -44.12,-279.97l0 -639.06c0,-99.41 14.71,-192.73 44.12,-279.97 29.42,-87.24 75.06,-169.91 136.94,-248.02 61.88,-78.11 151.14,-139.98 267.8,-185.63 116.65,-45.65 254.1,-68.47 412.34,-68.47 156.21,0 291.63,19.78 406.26,59.34 114.63,39.56 203.38,92.82 266.27,159.77 62.89,66.95 108.54,138.46 136.94,214.54 28.4,76.08 42.6,156.72 42.6,241.93l0 88.25 -456.47 0 0 -63.91c0,-83.18 -30.94,-153.17 -92.82,-209.98 -61.88,-56.81 -162.81,-85.21 -302.79,-85.21 -144.04,0 -246.49,36.01 -307.36,108.03 -60.86,72.02 -91.29,161.79 -91.29,269.32l0 639.06c0,107.52 30.43,197.3 91.29,269.32 60.86,72.02 163.31,108.03 307.36,108.03 142.01,0 243.45,-28.91 304.31,-86.73 60.86,-57.82 91.29,-129.33 91.29,-214.54l0 -85.21z"/>
  <path class="fil4" d="M6812.24 3785.25c-162.3,0 -303.3,-22.82 -423,-68.47 -119.7,-45.65 -211.5,-107.52 -275.4,-185.63 -63.91,-78.11 -110.57,-160.78 -139.98,-248.02 -29.42,-87.24 -44.12,-180.56 -44.12,-279.97l0 -639.06c0,-99.41 14.71,-192.73 44.12,-279.97 29.42,-87.24 76.08,-169.91 139.98,-248.02 63.91,-78.11 155.71,-139.98 275.4,-185.63 119.7,-45.65 260.69,-68.47 423,-68.47 164.33,0 306.34,22.82 426.04,68.47 119.7,45.65 211.5,107.52 275.4,185.63 63.91,78.11 110.57,160.78 139.98,248.02 29.42,87.24 44.12,180.56 44.12,279.97l0 639.06c0,99.41 -14.71,192.73 -44.12,279.97 -29.42,87.24 -76.08,169.91 -139.98,248.02 -63.91,78.11 -155.71,139.98 -275.4,185.63 -119.7,45.65 -261.71,68.47 -426.04,68.47zm0 -404.74c154.19,0 263.23,-38.04 327.14,-114.12 63.91,-76.08 95.86,-171.94 95.86,-287.58l0 -590.37c0,-115.64 -31.95,-211.5 -95.86,-287.58 -63.91,-76.08 -172.95,-114.12 -327.14,-114.12 -152.16,0 -260.19,38.04 -324.09,114.12 -63.91,76.08 -95.86,171.94 -95.86,287.58l0 590.37c0,115.64 31.95,211.5 95.86,287.58 63.91,76.08 171.94,114.12 324.09,114.12z"/>
  <polygon class="fil5" points="8645.96,3076.19 8201.66,2431.05 8201.66,3748.73 7772.58,3748.73 7772.58,1618.53 8174.27,1618.53 8749.43,2494.95 9303.28,1618.53 9729.31,1618.53 9729.31,3748.73 9275.89,3748.73 9275.89,2409.75 8843.76,3076.19 "/>
  <path class="fil6" d="M10698.79 3115.75l-374.31 0 0 632.97 -462.56 0 0 -2130.2 836.86 0c164.33,0 306.34,20.8 426.04,62.38 119.7,41.59 211.5,98.9 275.4,171.94 63.91,73.04 110.57,151.65 139.98,235.84 29.42,84.19 44.12,177.01 44.12,278.45 0,101.44 -14.71,194.25 -44.12,278.45 -29.42,84.19 -76.08,162.81 -139.98,235.84 -63.91,73.04 -155.71,130.35 -275.4,171.94 -119.7,41.59 -261.71,62.38 -426.04,62.38zm-9.13 -1104.66l-365.18 0 0 715.14 365.18 0c282,0 423,-118.68 423,-356.05 0,-239.39 -141,-359.09 -423,-359.09z"/>
  <path class="fil7" d="M11558.71 1618.53l462.56 0 0 1360.28c0,115.64 31.44,211.5 94.34,287.58 62.89,76.08 170.42,114.12 322.57,114.12 150.13,0 257.15,-38.55 321.05,-115.64 63.91,-77.09 95.86,-172.44 95.86,-286.06l0 -1360.28 462.56 0 0 167.72 -63.94 0 -317.5 1794.75 150.46 0c-59.14,55.05 -134.81,100.31 -227,135.77 -118.68,45.65 -259.17,68.47 -421.48,68.47 -162.3,0 -302.79,-22.82 -421.47,-68.47 -118.68,-45.65 -209.98,-107.52 -273.88,-185.63 -63.91,-78.11 -110.57,-160.78 -139.98,-248.02 -29.42,-87.24 -44.12,-180.56 -44.12,-279.97l0 -1384.63z"/>
  <path class="fil8" d="M13871.81 3070.15l-338.4 0 -79.53 448.55 -443.38 0 295.45 -1670.13 573.01 0c259.27,0 445.37,49.71 558.3,149.12 112.93,99.41 169.4,228.65 169.4,387.71 0,66.8 -7.16,131.23 -21.47,193.26 -14.31,62.03 -39.37,123.27 -75.16,183.71 -35.79,60.44 -80.72,112.93 -134.8,157.47 -54.08,44.54 -124.46,80.72 -211.15,108.56 -86.69,27.84 -184.11,41.75 -292.27,41.75zm2.38 -847l-190.87 0 -83.9 474.8 262.45 0c108.56,0 184.11,-26.64 227.06,-79.93 42.95,-53.29 64.42,-118.1 64.42,-194.45 0,-133.61 -93.05,-200.42 -279.15,-200.42zm1483.78 670.44l-76.35 -527.29 -262.45 527.29 338.8 0zm102.99 625.11l-45.33 -274.38 -570.63 0 -137.98 274.38 -465.65 0 885.97 -1670.13 472.81 0 292.27 1670.13 -431.45 0zm1113.57 0l-443.78 0 107.37 -601.25 -360.27 -1068.88 455.71 0 182.92 624.71 415.94 -624.71 484.34 0 -730.09 1045.03 -112.14 625.11z"/>
 </g>
</svg>
