<?xml version="1.0" encoding="UTF-8"?>
<!DOCTYPE svg PUBLIC "-//W3C//DTD SVG 1.1//EN" "http://www.w3.org/Graphics/SVG/1.1/DTD/svg11.dtd">
<!-- Creator: CorelDRAW -->
<svg xmlns="http://www.w3.org/2000/svg" xml:space="preserve" width="760.258mm" height="646.414mm" version="1.1" style="shape-rendering:geometricPrecision; text-rendering:geometricPrecision; image-rendering:optimizeQuality; fill-rule:evenodd; clip-rule:evenodd"
viewBox="0 0 14760.83 12550.49"
 xmlns:xlink="http://www.w3.org/1999/xlink"
 xmlns:xodm="http://www.corel.com/coreldraw/odm/2003">
 <defs>
  <style type="text/css">
   <![CDATA[
    .fil2 {fill:#DF7C09}
    .fil0 {fill:#EAA416}
    .fil1 {fill:white;fill-rule:nonzero}
    .fil7 {fill:url(#id0)}
    .fil6 {fill:url(#id1);fill-rule:nonzero}
    .fil8 {fill:url(#id2);fill-rule:nonzero}
    .fil3 {fill:url(#id3);fill-rule:nonzero}
    .fil5 {fill:url(#id4);fill-rule:nonzero}
    .fil4 {fill:url(#id5);fill-rule:nonzero}
   ]]>
  </style>
  <linearGradient id="id0" gradientUnits="userSpaceOnUse" x1="9182.86" y1="12550.49" x2="9182.86" y2="10122.91">
   <stop offset="0" style="stop-opacity:1; stop-color:#0186AF"/>
   <stop offset="1" style="stop-opacity:1; stop-color:#00B4D8"/>
  </linearGradient>
  <linearGradient id="id1" gradientUnits="userSpaceOnUse" xlink:href="#id0" x1="7261.34" y1="12509.57" x2="7261.34" y2="10122.91">
  </linearGradient>
  <linearGradient id="id2" gradientUnits="userSpaceOnUse" x1="12409.79" y1="12284.29" x2="12175.13" y2="10348.19">
   <stop offset="0" style="stop-opacity:1; stop-color:#DF7C09"/>
   <stop offset="1" style="stop-opacity:1; stop-color:#EAA416"/>
  </linearGradient>
  <linearGradient id="id3" gradientUnits="userSpaceOnUse" xlink:href="#id0" x1="959.78" y1="12550.49" x2="959.78" y2="10082">
  </linearGradient>
  <linearGradient id="id4" gradientUnits="userSpaceOnUse" xlink:href="#id0" x1="5051.71" y1="12509.57" x2="5051.71" y2="10122.91">
  </linearGradient>
  <linearGradient id="id5" gradientUnits="userSpaceOnUse" xlink:href="#id0" x1="2881.3" y1="12550.49" x2="2881.3" y2="10082">
  </linearGradient>
 </defs>
 <g id="Capa_x0020_1">
  <metadata id="CorelCorpID_0Corel-Layer"/>
  <g id="_1907696683520">
   <path class="fil0" d="M7380.39 0c1840.68,0 3332.8,1492.12 3332.8,3332.75 0,1840.63 -1492.12,3332.75 -3332.8,3332.75 -1840.6,0 -3332.75,-1492.12 -3332.75,-3332.75 0,-1840.64 1492.16,-3332.75 3332.75,-3332.75zm0 236.75c1709.93,0 3096.04,1386.11 3096.04,3096 0,1709.94 -1386.11,3096.09 -3096.04,3096.09 -1709.9,0 -3096.04,-1386.15 -3096.04,-3096.09 0,-1709.9 1386.15,-3096 3096.04,-3096z"/>
   <path class="fil0" d="M7380.39 413.33c1612.39,0 2919.47,1307.08 2919.47,2919.43 0,1612.43 -1307.08,2919.51 -2919.47,2919.51 -1612.35,0 -2919.47,-1307.08 -2919.47,-2919.51 0,-1612.35 1307.12,-2919.43 2919.47,-2919.43z"/>
   <path class="fil1" d="M8479.28 2173.18c-229.58,-204.89 -513,-325.37 -850.13,-361.45l0 -430.09 -497.48 0 0 439.43c-192.54,30.45 -369.58,94.21 -531.01,191.09 -235.42,141.25 -353.15,353.1 -353.15,635.65 3.67,485.93 382.3,764.68 1135.72,836.2 218.49,22.65 381.42,62.18 488.73,118.65 107.35,56.51 159.18,145.05 155.39,265.61 -3.75,120.52 -64.01,210.94 -180.79,271.24 -116.81,60.22 -254.27,90.33 -412.49,90.33 -410.57,-7.55 -736.45,-145.05 -977.5,-412.41l-305.1 412.41c248.18,278.91 574.97,444.27 980.2,496.32l0 557.83 497.48 0 0 -549.69c263.27,-25.94 480.72,-103.68 652.46,-233.25 214.69,-161.98 323.91,-374.79 327.71,-638.44 0,-169.53 -34.82,-312.65 -104.51,-429.47 -69.73,-116.77 -169.52,-204.39 -299.52,-262.73 -129.91,-58.34 -252.39,-99.8 -367.2,-124.28 -114.89,-24.44 -251.47,-44.25 -409.7,-59.3 -399.31,-37.7 -600.83,-156.39 -604.54,-355.98 0,-109.22 53.63,-193.05 161.02,-251.43 107.39,-58.39 251.43,-85.7 432.22,-81.91 301.4,0 546.24,86.58 734.61,259.86l327.58 -384.18z"/>
   <path class="fil2" d="M4797.34 3432.09c0,-1426.6 1156.44,-2583.05 2583.05,-2583.05 1426.6,0 2583.05,1156.44 2583.05,2583.05 0,1426.6 -1156.45,2583.05 -2583.05,2583.05 -1426.6,0 -2583.05,-1156.44 -2583.05,-2583.05zm5502.52 -99.34c0,-1612.35 -1307.08,-2919.43 -2919.47,-2919.43 -1612.39,0 -2919.47,1307.08 -2919.47,2919.43 0,1612.43 1307.08,2919.51 2919.47,2919.51 1612.39,0 2919.47,-1307.08 2919.47,-2919.51z"/>
   <path class="fil2" d="M11407.8 3059.26l901.34 4267.04 -2163.97 1816.32 -14.18 94.25 -2614.91 0 684.48 -2196.79 2445.8 -1437.28 81.36 948.34 -1068.7 1007.56 -379.88 1000.39 559.5 -776.57 1207.91 -1050.14 -206.85 -2387.66c0,0 -91.21,-1030.83 568.09,-1285.48z"/>
   <path class="fil2" d="M3353.06 3059.26l-901.36 4267.04 2163.99 1816.32 14.18 94.25 2614.91 0 -684.48 -2196.79 -2445.8 -1437.28 -81.36 948.34 1068.66 1007.52 379.92 1000.43 -559.54 -776.57 -1207.91 -1050.14 206.89 -2387.66c0,0 91.17,-1030.83 -568.09,-1285.48z"/>
  </g>
  <g id="_1907696684864">
   <path class="fil3" d="M1408.13 11664.01l511.43 0 0 122.74c0,75.01 -9.66,147.18 -28.98,216.5 -19.32,69.33 -52.28,138.09 -98.88,206.27 -46.6,68.19 -105.13,126.72 -175.59,175.59 -70.46,48.87 -161.38,88.65 -272.76,119.33 -111.38,30.69 -237.53,46.03 -378.46,46.03 -177.3,0 -331.29,-25.57 -461.99,-76.71 -130.7,-51.14 -230.71,-120.47 -300.04,-207.98 -69.33,-87.51 -120.47,-180.14 -153.43,-277.88 -32.96,-97.74 -49.44,-202.3 -49.44,-313.68l0 -716c0,-111.38 16.48,-215.94 49.44,-313.68 32.96,-97.74 84.1,-190.36 153.43,-277.88 69.33,-87.51 169.34,-156.84 300.04,-207.98 130.7,-51.14 284.69,-76.71 461.99,-76.71 175.02,0 326.74,22.16 455.17,66.49 128.42,44.32 227.87,103.99 298.33,179 70.46,75.01 121.61,155.13 153.43,240.37 31.82,85.24 47.73,175.59 47.73,271.06l0 98.88 -511.43 0 0 -71.6c0,-93.19 -34.66,-171.61 -103.99,-235.26 -69.33,-63.64 -182.41,-95.47 -339.25,-95.47 -161.38,0 -276.17,40.35 -344.36,121.04 -68.19,80.69 -102.28,181.27 -102.28,301.74l0 716c0,120.47 34.1,221.05 102.28,301.74 68.19,80.69 182.98,121.04 344.36,121.04 159.11,0 272.76,-32.39 340.95,-97.17 68.19,-64.78 102.29,-144.9 102.29,-240.37l0 -95.47z"/>
   <path class="fil4" d="M2879.59 12550.49c-181.84,0 -339.81,-25.57 -473.92,-76.71 -134.11,-51.14 -236.96,-120.47 -308.56,-207.98 -71.6,-87.51 -123.88,-180.14 -156.84,-277.88 -32.96,-97.74 -49.44,-202.3 -49.44,-313.68l0 -716c0,-111.38 16.48,-215.94 49.44,-313.68 32.96,-97.74 85.24,-190.36 156.84,-277.88 71.6,-87.51 174.45,-156.84 308.56,-207.98 134.11,-51.14 292.08,-76.71 473.92,-76.71 184.11,0 343.23,25.57 477.33,76.71 134.11,51.14 236.96,120.47 308.56,207.98 71.6,87.51 123.88,180.14 156.84,277.88 32.96,97.74 49.44,202.3 49.44,313.68l0 716c0,111.38 -16.48,215.94 -49.44,313.68 -32.96,97.74 -85.24,190.36 -156.84,277.88 -71.6,87.51 -174.45,156.84 -308.56,207.98 -134.11,51.14 -293.22,76.71 -477.33,76.71zm0 -453.47c172.75,0 294.92,-42.62 366.52,-127.86 71.6,-85.24 107.4,-192.64 107.4,-322.2l0 -661.44c0,-129.56 -35.8,-236.96 -107.4,-322.2 -71.6,-85.24 -193.77,-127.86 -366.52,-127.86 -170.47,0 -291.51,42.62 -363.11,127.86 -71.6,85.24 -107.4,192.64 -107.4,322.2l0 661.44c0,129.56 35.8,236.96 107.4,322.2 71.6,85.24 192.64,127.86 363.11,127.86z"/>
   <polygon class="fil5" points="4934.09,11756.07 4436.3,11033.25 4436.3,12509.57 3955.55,12509.57 3955.55,10122.91 4405.61,10122.91 5050.01,11104.85 5670.54,10122.91 6147.87,10122.91 6147.87,12509.57 5639.86,12509.57 5639.86,11009.38 5155.7,11756.07 "/>
   <path class="fil6" d="M7234.06 11800.39l-419.37 0 0 709.18 -518.25 0 0 -2386.66 937.62 0c184.11,0 343.22,23.3 477.33,69.9 134.11,46.6 236.96,110.81 308.56,192.64 71.6,81.83 123.88,169.91 156.84,264.24 32.96,94.33 49.44,198.32 49.44,311.97 0,113.65 -16.48,217.64 -49.44,311.97 -32.96,94.33 -85.24,182.41 -156.84,264.24 -71.6,81.83 -174.45,146.04 -308.56,192.64 -134.11,46.6 -293.22,69.9 -477.33,69.9zm-10.23 -1237.65l-409.14 0 0 801.23 409.14 0c315.95,0 473.92,-132.97 473.92,-398.91 0,-268.21 -157.97,-402.32 -473.92,-402.32z"/>
   <path class="fil7" d="M8197.51 10122.91l518.25 0 0 1524.05c0,129.56 35.23,236.96 105.7,322.2 70.46,85.24 190.93,127.86 361.41,127.86 168.2,0 288.11,-43.19 359.7,-129.56 71.6,-86.37 107.4,-193.2 107.4,-320.49l0 -1524.05 518.25 0 0 187.92 -71.64 0 -355.72 2010.83 168.57 0c-66.26,61.68 -151.04,112.38 -254.33,152.11 -132.97,51.14 -290.38,76.71 -472.22,76.71 -181.84,0 -339.25,-25.57 -472.22,-76.71 -132.97,-51.14 -235.26,-120.47 -306.85,-207.98 -71.6,-87.51 -123.88,-180.14 -156.84,-277.88 -32.96,-97.74 -49.44,-202.3 -49.44,-313.68l0 -1551.33z"/>
   <path class="fil8" d="M10789.09 11749.29l-379.14 0 -89.11 502.55 -496.76 0 331.03 -1871.21 642 0c290.48,0 498.99,55.69 625.52,167.07 126.53,111.38 189.79,256.18 189.79,434.39 0,74.85 -8.02,147.02 -24.06,216.52 -16.04,69.5 -44.11,138.11 -84.21,205.83 -40.1,67.72 -90.44,126.53 -151.03,176.43 -60.59,49.9 -139.45,90.44 -236.57,121.63 -97.12,31.19 -206.28,46.78 -327.46,46.78zm2.67 -948.97l-213.85 0 -94 531.96 294.05 0c121.63,0 206.28,-29.85 254.39,-89.55 48.12,-59.7 72.18,-132.32 72.18,-217.86 0,-149.7 -104.25,-224.54 -312.76,-224.54zm1662.42 751.16l-85.54 -590.77 -294.05 590.77 379.59 0zm115.39 700.37l-50.79 -307.41 -639.33 0 -154.6 307.41 -521.71 0 992.63 -1871.21 529.73 0 327.46 1871.21 -483.4 0zm1247.63 0l-497.21 0 120.29 -673.63 -403.65 -1197.57 510.57 0 204.94 699.92 466.02 -699.92 542.65 0 -817.98 1170.84 -125.64 700.37z"/>
  </g>
 </g>
</svg>
