<?xml version="1.0" encoding="UTF-8"?>
<!DOCTYPE svg PUBLIC "-//W3C//DTD SVG 1.1//EN" "http://www.w3.org/Graphics/SVG/1.1/DTD/svg11.dtd">
<!-- Creator: CorelDRAW -->
<svg xmlns="http://www.w3.org/2000/svg" xml:space="preserve" width="507.709mm" height="475.746mm" version="1.1" style="shape-rendering:geometricPrecision; text-rendering:geometricPrecision; image-rendering:optimizeQuality; fill-rule:evenodd; clip-rule:evenodd"
viewBox="0 0 7036.76 6593.76"
 xmlns:xlink="http://www.w3.org/1999/xlink"
 xmlns:xodm="http://www.corel.com/coreldraw/odm/2003">
 <defs>
  <style type="text/css">
   <![CDATA[
    .fil2 {fill:#DF7C09}
    .fil0 {fill:#EAA416}
    .fil1 {fill:white;fill-rule:nonzero}
   ]]>
  </style>
 </defs>
 <g id="Capa_x0020_1">
  <metadata id="CorelCorpID_0Corel-Layer"/>
  <g id="_1907700039088">
   <path class="fil0" d="M3518.36 0c1313.97,0 2379.12,1065.15 2379.12,2379.09 0,1313.94 -1065.15,2379.09 -2379.12,2379.09 -1313.91,0 -2379.09,-1065.15 -2379.09,-2379.09 0,-1313.94 1065.18,-2379.09 2379.09,-2379.09zm0 169.01c1220.64,0 2210.12,989.48 2210.12,2210.09 0,1220.64 -989.48,2210.15 -2210.12,2210.15 -1220.61,0 -2210.12,-989.51 -2210.12,-2210.15 0,-1220.61 989.5,-2210.09 2210.12,-2210.09z"/>
   <path class="fil0" d="M3518.36 295.05c1151.01,0 2084.07,933.06 2084.07,2084.04 0,1151.04 -933.06,2084.1 -2084.07,2084.1 -1150.98,0 -2084.07,-933.06 -2084.07,-2084.1 0,-1150.98 933.09,-2084.04 2084.07,-2084.04z"/>
   <path class="fil1" d="M4302.81 1551.33c-163.89,-146.26 -366.2,-232.27 -606.87,-258.02l0 -307.02 -355.13 0 0 313.69c-137.45,21.73 -263.82,67.25 -379.06,136.41 -168.05,100.83 -252.1,252.06 -252.1,453.76 2.62,346.88 272.9,545.87 810.73,596.92 155.97,16.17 272.28,44.39 348.88,84.7 76.63,40.34 113.63,103.54 110.92,189.61 -2.68,86.04 -45.7,150.58 -129.05,193.63 -83.39,42.99 -181.51,64.48 -294.46,64.48 -293.09,-5.39 -525.71,-103.54 -697.79,-294.4l-217.8 294.4c177.16,199.1 410.44,317.14 699.72,354.3l0 398.21 355.13 0 0 -392.4c187.94,-18.52 343.16,-74.01 465.76,-166.51 153.26,-115.63 231.23,-267.54 233.93,-455.75 0,-121.02 -24.86,-223.19 -74.6,-306.58 -49.77,-83.36 -121.02,-145.9 -213.81,-187.55 -92.73,-41.65 -180.17,-71.24 -262.13,-88.72 -82.02,-17.45 -179.52,-31.59 -292.46,-42.33 -285.05,-26.91 -428.9,-111.64 -431.55,-254.12 0,-77.97 38.29,-137.81 114.94,-179.48 76.66,-41.68 179.49,-61.18 308.54,-58.47 215.15,0 389.93,61.8 524.4,185.5l233.85 -274.24z"/>
   <path class="fil2" d="M1674.45 2450.01c0,-1018.38 825.53,-1843.91 1843.91,-1843.91 1018.38,0 1843.91,825.53 1843.91,1843.91 0,1018.38 -825.53,1843.91 -1843.91,1843.91 -1018.38,0 -1843.91,-825.53 -1843.91,-1843.91zm3927.98 -70.91c0,-1150.98 -933.06,-2084.04 -2084.07,-2084.04 -1151.01,0 -2084.07,933.06 -2084.07,2084.04 0,1151.04 933.06,2084.1 2084.07,2084.1 1151.01,0 2084.07,-933.06 2084.07,-2084.1z"/>
   <path class="fil2" d="M6393.34 2183.86l643.43 3046.04 -1544.75 1296.59 -10.12 67.28 -1866.66 0 488.62 -1568.18 1745.94 -1026 58.08 676.98 -762.89 719.25 -271.18 714.13 399.4 -554.35 862.27 -749.65 -147.66 -1704.44c0,0 -65.11,-735.86 405.53,-917.64z"/>
   <path class="fil2" d="M643.44 2183.86l-643.44 3046.04 1544.77 1296.59 10.12 67.28 1866.66 0 -488.62 -1568.18 -1745.94 -1026 -58.08 676.98 762.86 719.22 271.21 714.16 -399.43 -554.35 -862.27 -749.65 147.69 -1704.44c0,0 65.08,-735.86 -405.53,-917.64z"/>
  </g>
 </g>
</svg>
