<?xml version="1.0" encoding="UTF-8"?>
<!DOCTYPE svg PUBLIC "-//W3C//DTD SVG 1.1//EN" "http://www.w3.org/Graphics/SVG/1.1/DTD/svg11.dtd">
<!-- Creator: CorelDRAW -->
<svg xmlns="http://www.w3.org/2000/svg" xml:space="preserve" width="760.258mm" height="127.14mm" version="1.1" style="shape-rendering:geometricPrecision; text-rendering:geometricPrecision; image-rendering:optimizeQuality; fill-rule:evenodd; clip-rule:evenodd"
viewBox="0 0 14760.83 2468.49"
 xmlns:xlink="http://www.w3.org/1999/xlink"
 xmlns:xodm="http://www.corel.com/coreldraw/odm/2003">
 <defs>
  <style type="text/css">
   <![CDATA[
    .fil4 {fill:url(#id0)}
    .fil3 {fill:url(#id1);fill-rule:nonzero}
    .fil5 {fill:url(#id2);fill-rule:nonzero}
    .fil0 {fill:url(#id3);fill-rule:nonzero}
    .fil2 {fill:url(#id4);fill-rule:nonzero}
    .fil1 {fill:url(#id5);fill-rule:nonzero}
   ]]>
  </style>
  <linearGradient id="id0" gradientUnits="userSpaceOnUse" x1="9182.86" y1="2468.49" x2="9182.86" y2="40.91">
   <stop offset="0" style="stop-opacity:1; stop-color:#0186AF"/>
   <stop offset="1" style="stop-opacity:1; stop-color:#00B4D8"/>
  </linearGradient>
  <linearGradient id="id1" gradientUnits="userSpaceOnUse" xlink:href="#id0" x1="7261.34" y1="2427.57" x2="7261.34" y2="40.91">
  </linearGradient>
  <linearGradient id="id2" gradientUnits="userSpaceOnUse" x1="12409.79" y1="2202.3" x2="12175.13" y2="266.19">
   <stop offset="0" style="stop-opacity:1; stop-color:#DF7C09"/>
   <stop offset="1" style="stop-opacity:1; stop-color:#EAA416"/>
  </linearGradient>
  <linearGradient id="id3" gradientUnits="userSpaceOnUse" xlink:href="#id0" x1="959.78" y1="2468.49" x2="959.78" y2="0">
  </linearGradient>
  <linearGradient id="id4" gradientUnits="userSpaceOnUse" xlink:href="#id0" x1="5051.71" y1="2427.57" x2="5051.71" y2="40.91">
  </linearGradient>
  <linearGradient id="id5" gradientUnits="userSpaceOnUse" xlink:href="#id0" x1="2881.3" y1="2468.49" x2="2881.3" y2="0">
  </linearGradient>
 </defs>
 <g id="Capa_x0020_1">
  <metadata id="CorelCorpID_0Corel-Layer"/>
  <g id="_1907700000640">
   <path class="fil0" d="M1408.13 1582.02l511.43 0 0 122.74c0,75.01 -9.66,147.18 -28.98,216.5 -19.32,69.33 -52.28,138.09 -98.88,206.27 -46.6,68.19 -105.13,126.72 -175.59,175.59 -70.46,48.87 -161.38,88.65 -272.76,119.33 -111.38,30.69 -237.53,46.03 -378.46,46.03 -177.3,0 -331.29,-25.57 -461.99,-76.71 -130.7,-51.14 -230.71,-120.47 -300.04,-207.98 -69.33,-87.51 -120.47,-180.14 -153.43,-277.88 -32.96,-97.74 -49.44,-202.3 -49.44,-313.68l0 -716c0,-111.38 16.48,-215.94 49.44,-313.68 32.96,-97.74 84.1,-190.36 153.43,-277.88 69.33,-87.51 169.34,-156.84 300.04,-207.98 130.7,-51.14 284.69,-76.71 461.99,-76.71 175.02,0 326.74,22.16 455.17,66.49 128.42,44.32 227.87,103.99 298.33,179 70.46,75.01 121.61,155.13 153.43,240.37 31.82,85.24 47.73,175.59 47.73,271.06l0 98.88 -511.43 0 0 -71.6c0,-93.19 -34.66,-171.61 -103.99,-235.26 -69.33,-63.64 -182.41,-95.47 -339.25,-95.47 -161.38,0 -276.17,40.35 -344.36,121.04 -68.19,80.69 -102.28,181.27 -102.28,301.74l0 716c0,120.47 34.1,221.05 102.28,301.74 68.19,80.69 182.98,121.04 344.36,121.04 159.11,0 272.76,-32.39 340.95,-97.17 68.19,-64.78 102.29,-144.9 102.29,-240.37l0 -95.47z"/>
   <path class="fil1" d="M2879.59 2468.49c-181.84,0 -339.81,-25.57 -473.92,-76.71 -134.11,-51.14 -236.96,-120.47 -308.56,-207.98 -71.6,-87.51 -123.88,-180.14 -156.84,-277.88 -32.96,-97.74 -49.44,-202.3 -49.44,-313.68l0 -716c0,-111.38 16.48,-215.94 49.44,-313.68 32.96,-97.74 85.24,-190.36 156.84,-277.88 71.6,-87.51 174.45,-156.84 308.56,-207.98 134.11,-51.14 292.08,-76.71 473.92,-76.71 184.11,0 343.23,25.57 477.33,76.71 134.11,51.14 236.96,120.47 308.56,207.98 71.6,87.51 123.88,180.14 156.84,277.88 32.96,97.74 49.44,202.3 49.44,313.68l0 716c0,111.38 -16.48,215.94 -49.44,313.68 -32.96,97.74 -85.24,190.36 -156.84,277.88 -71.6,87.51 -174.45,156.84 -308.56,207.98 -134.11,51.14 -293.22,76.71 -477.33,76.71zm0 -453.47c172.75,0 294.92,-42.62 366.52,-127.86 71.6,-85.24 107.4,-192.64 107.4,-322.2l0 -661.44c0,-129.56 -35.8,-236.96 -107.4,-322.2 -71.6,-85.24 -193.77,-127.86 -366.52,-127.86 -170.47,0 -291.51,42.62 -363.11,127.86 -71.6,85.24 -107.4,192.64 -107.4,322.2l0 661.44c0,129.56 35.8,236.96 107.4,322.2 71.6,85.24 192.64,127.86 363.11,127.86z"/>
   <polygon class="fil2" points="4934.09,1674.07 4436.3,951.26 4436.3,2427.57 3955.55,2427.57 3955.55,40.91 4405.61,40.91 5050.01,1022.85 5670.54,40.91 6147.87,40.91 6147.87,2427.57 5639.86,2427.57 5639.86,927.39 5155.7,1674.07 "/>
   <path class="fil3" d="M7234.06 1718.4l-419.37 0 0 709.18 -518.25 0 0 -2386.66 937.62 0c184.11,0 343.22,23.3 477.33,69.9 134.11,46.6 236.96,110.81 308.56,192.64 71.6,81.83 123.88,169.91 156.84,264.24 32.96,94.33 49.44,198.32 49.44,311.97 0,113.65 -16.48,217.64 -49.44,311.97 -32.96,94.33 -85.24,182.41 -156.84,264.24 -71.6,81.83 -174.45,146.04 -308.56,192.64 -134.11,46.6 -293.22,69.9 -477.33,69.9zm-10.23 -1237.65l-409.14 0 0 801.23 409.14 0c315.95,0 473.92,-132.97 473.92,-398.91 0,-268.21 -157.97,-402.32 -473.92,-402.32z"/>
   <path class="fil4" d="M8197.51 40.91l518.25 0 0 1524.05c0,129.56 35.23,236.96 105.7,322.2 70.46,85.24 190.93,127.86 361.41,127.86 168.2,0 288.11,-43.19 359.7,-129.56 71.6,-86.37 107.4,-193.2 107.4,-320.49l0 -1524.05 518.25 0 0 187.92 -71.64 0 -355.72 2010.83 168.57 0c-66.26,61.68 -151.04,112.38 -254.33,152.11 -132.97,51.14 -290.38,76.71 -472.22,76.71 -181.84,0 -339.25,-25.57 -472.22,-76.71 -132.97,-51.14 -235.26,-120.47 -306.85,-207.98 -71.6,-87.51 -123.88,-180.14 -156.84,-277.88 -32.96,-97.74 -49.44,-202.3 -49.44,-313.68l0 -1551.33z"/>
   <path class="fil5" d="M10789.09 1667.3l-379.14 0 -89.11 502.55 -496.76 0 331.03 -1871.21 642 0c290.48,0 498.99,55.69 625.52,167.07 126.53,111.38 189.79,256.18 189.79,434.39 0,74.85 -8.02,147.02 -24.06,216.52 -16.04,69.5 -44.11,138.11 -84.21,205.83 -40.1,67.72 -90.44,126.53 -151.03,176.43 -60.59,49.9 -139.45,90.44 -236.57,121.63 -97.12,31.19 -206.28,46.78 -327.46,46.78zm2.67 -948.97l-213.85 0 -94 531.96 294.05 0c121.63,0 206.28,-29.85 254.39,-89.55 48.12,-59.7 72.18,-132.32 72.18,-217.86 0,-149.7 -104.25,-224.54 -312.76,-224.54zm1662.42 751.16l-85.54 -590.77 -294.05 590.77 379.59 0zm115.39 700.37l-50.79 -307.41 -639.33 0 -154.6 307.41 -521.71 0 992.63 -1871.21 529.73 0 327.46 1871.21 -483.4 0zm1247.63 0l-497.21 0 120.29 -673.63 -403.65 -1197.57 510.57 0 204.94 699.92 466.02 -699.92 542.65 0 -817.98 1170.84 -125.64 700.37z"/>
  </g>
 </g>
</svg>
